<?xml version="1.0" encoding="UTF-8"?>
<svg id="Layer_2" data-name="Layer 2" xmlns="http://www.w3.org/2000/svg" viewBox="0 0 983.94 369.36">
  <defs>
    <style>
      .cls-1 {
        fill: #c6ff00;
      }
    </style>
  </defs>
  <g id="Layer_1-2" data-name="Layer 1">
    <g>
      <path class="cls-1" d="M0,58.19h72.62v23.74H0v-23.74ZM50.51,173.16h-28.4V22.34h28.4v150.82Z"/>
      <path class="cls-1" d="M102.87,173.16h-28.4V0h28.63v73.08c3.57-5.59,8.57-10.04,15.01-13.38,6.44-3.34,13.85-5,22.23-5,14.12,0,24.87,4.27,32.24,12.8,7.37,8.54,11.05,20.17,11.05,34.91v70.75h-28.39v-64c0-6.52-1.01-11.87-3.03-16.06-2.02-4.19-4.81-7.33-8.38-9.42-3.57-2.09-7.76-3.14-12.57-3.14-5.9,0-10.98,1.28-15.24,3.84-4.27,2.56-7.53,6.09-9.77,10.59-2.25,4.5-3.38,9.62-3.38,15.36v62.84Z"/>
      <path class="cls-1" d="M244.97,176.19c-11.33,0-21.38-2.6-30.14-7.8-8.77-5.2-15.63-12.34-20.6-21.41-4.97-9.08-7.45-19.51-7.45-31.3s2.41-22.5,7.22-31.65c4.81-9.15,11.56-16.33,20.25-21.53,8.69-5.2,18.62-7.8,29.79-7.8s21.65,2.44,30.02,7.33c8.38,4.89,14.86,11.68,19.43,20.37,4.58,8.69,6.87,19.08,6.87,31.19v8.61l-98.68.23.47-18.15h70.06c0-7.91-2.53-14.27-7.56-19.09-5.05-4.81-11.83-7.21-20.37-7.21-6.67,0-12.3,1.4-16.88,4.19-4.58,2.79-8.03,6.98-10.36,12.57-2.33,5.59-3.49,12.42-3.49,20.48,0,12.42,2.67,21.8,8.03,28.16,5.36,6.36,13.3,9.54,23.86,9.54,7.76,0,14.16-1.47,19.2-4.42,5.04-2.95,8.34-7.13,9.89-12.57h26.3c-2.49,12.57-8.65,22.42-18.51,29.56-9.85,7.14-22.3,10.71-37.35,10.71Z"/>
      <path class="cls-1" d="M2.56,277.9h27c.16,4.97,2.02,8.92,5.59,11.87,3.57,2.95,8.53,4.42,14.89,4.42,6.83,0,11.99-1.24,15.48-3.72,3.49-2.48,5.24-5.82,5.24-10.01,0-2.79-.93-5.27-2.79-7.45-1.86-2.17-5.35-3.8-10.47-4.89l-20.71-4.89c-10.4-2.33-18.12-6.09-23.16-11.29-5.05-5.2-7.56-12.37-7.56-21.53,0-7.45,1.98-13.88,5.94-19.32,3.95-5.43,9.35-9.58,16.18-12.45,6.83-2.87,14.66-4.31,23.51-4.31s16.06,1.55,22.58,4.66c6.52,3.1,11.6,7.45,15.24,13.03,3.64,5.59,5.55,12.1,5.7,19.55h-27c0-4.96-1.55-8.88-4.65-11.75-3.11-2.87-7.45-4.31-13.03-4.31s-9.93,1.24-13.03,3.72c-3.11,2.49-4.66,5.82-4.66,10.01,0,6.36,4.97,10.71,14.9,13.03l20.71,4.89c9.62,2.17,16.87,5.67,21.76,10.47,4.89,4.81,7.33,11.64,7.33,20.48,0,7.76-2.02,14.47-6.05,20.13-4.03,5.67-9.7,10.01-16.99,13.03-7.3,3.03-15.67,4.54-25.13,4.54-14.28,0-25.64-3.49-34.1-10.47-8.46-6.98-12.69-16.14-12.69-27.46Z"/>
      <path class="cls-1" d="M98.12,255.09c0-11.95,2.64-22.46,7.91-31.54,5.27-9.08,12.57-16.18,21.88-21.3,9.31-5.12,19.86-7.68,31.65-7.68s22.54,2.56,31.77,7.68c9.23,5.12,16.49,12.22,21.76,21.3,5.27,9.08,7.91,19.59,7.91,31.54s-2.64,22.46-7.91,31.54c-5.28,9.08-12.53,16.18-21.76,21.3-9.24,5.12-19.82,7.68-31.77,7.68s-22.34-2.56-31.65-7.68c-9.31-5.12-16.61-12.22-21.88-21.3-5.28-9.08-7.91-19.59-7.91-31.54ZM126.52,255.09c0,6.98,1.43,13.11,4.31,18.39,2.87,5.28,6.75,9.39,11.64,12.34,4.89,2.95,10.59,4.42,17.1,4.42s12.26-1.47,17.22-4.42c4.96-2.95,8.85-7.06,11.64-12.34,2.79-5.27,4.19-11.4,4.19-18.39s-1.4-13.3-4.19-18.5c-2.79-5.2-6.67-9.27-11.64-12.22-4.97-2.95-10.71-4.42-17.22-4.42s-12.22,1.48-17.1,4.42c-4.89,2.95-8.77,7.02-11.64,12.22-2.88,5.2-4.31,11.37-4.31,18.5Z"/>
      <path class="cls-1" d="M222.04,255.09c0-11.79,2.44-22.26,7.33-31.42,4.89-9.15,11.64-16.33,20.25-21.53,8.61-5.2,18.58-7.8,29.91-7.8,15.67,0,28.51,4.07,38.52,12.22,10,8.15,15.79,19.13,17.34,32.93h-28.4c-1.71-6.52-4.85-11.44-9.42-14.78-4.58-3.34-10.28-5-17.11-5-5.9,0-11.13,1.44-15.71,4.31-4.58,2.87-8.11,6.95-10.59,12.22-2.48,5.28-3.72,11.56-3.72,18.85s1.17,13.58,3.49,18.85c2.33,5.28,5.7,9.35,10.13,12.22,4.42,2.87,9.66,4.31,15.71,4.31,7.13,0,13.07-1.71,17.8-5.12,4.73-3.41,7.87-8.3,9.42-14.66h28.63c-1.25,9-4.39,16.87-9.43,23.62-5.04,6.75-11.52,12.03-19.43,15.83-7.91,3.8-16.91,5.7-27,5.7-11.64,0-21.8-2.52-30.49-7.56-8.69-5.04-15.4-12.1-20.13-21.18-4.74-9.08-7.1-19.74-7.1-32Z"/>
      <path class="cls-1" d="M355.81,174.79c-4.81,0-8.88-1.66-12.22-5-3.34-3.33-5-7.41-5-12.22s1.66-8.84,5-12.1c3.33-3.26,7.41-4.89,12.22-4.89s8.88,1.63,12.22,4.89c3.33,3.26,5,7.3,5,12.1s-1.67,8.89-5,12.22c-3.34,3.34-7.41,5-12.22,5ZM341.85,312.81v-114.98h28.39v114.98h-28.39Z"/>
      <path class="cls-1" d="M413.53,315.83c-12.1,0-21.68-3.29-28.74-9.89-7.06-6.59-10.59-15.25-10.59-25.95s3.69-18.97,11.05-25.25c7.37-6.28,17.88-9.97,31.54-11.05l34.45-2.79v-2.56c0-5.27-.97-9.5-2.91-12.68-1.94-3.18-4.7-5.5-8.26-6.98-3.57-1.47-7.76-2.21-12.57-2.21-8.38,0-14.82,1.67-19.32,5-4.5,3.34-6.75,8.03-6.75,14.08h-24.21c0-8.38,2.13-15.63,6.4-21.76,4.27-6.13,10.32-10.9,18.16-14.32,7.83-3.41,16.87-5.12,27.11-5.12s19.32,1.83,26.77,5.47c7.45,3.65,13.19,9.08,17.22,16.29,4.03,7.22,6.05,16.18,6.05,26.88v69.82h-24.9l-2.09-16.99c-2.49,5.9-7.25,10.71-14.32,14.43-7.06,3.72-15.09,5.59-24.09,5.59ZM422.61,294.42c8.84,0,15.86-2.48,21.06-7.45,5.2-4.96,7.8-11.87,7.8-20.71v-6.05l-23.97,1.86c-8.85.78-15.13,2.6-18.85,5.47-3.72,2.87-5.58,6.63-5.58,11.29,0,5.12,1.7,9,5.12,11.64,3.41,2.64,8.22,3.95,14.43,3.95Z"/>
      <path class="cls-1" d="M515.7,312.81h-28.16v-173.16h28.16v173.16Z"/>
      <path class="cls-1" d="M525.01,366.11v-168.27h26.3l1.86,17.46c3.41-6.67,8.69-11.83,15.83-15.48,7.13-3.64,14.97-5.47,23.51-5.47,11.02,0,20.52,2.48,28.51,7.45,7.99,4.97,14.23,11.87,18.74,20.72,4.5,8.84,6.75,19.32,6.75,31.42s-2.09,22.58-6.28,31.89c-4.19,9.31-10.28,16.64-18.27,21.99-7.99,5.35-17.73,8.03-29.21,8.03-8.53,0-16.33-1.63-23.39-4.89-7.06-3.26-12.38-7.76-15.94-13.5v68.66h-28.39ZM553.64,255.32c0,6.83,1.31,12.88,3.95,18.15,2.64,5.28,6.4,9.43,11.29,12.45,4.89,3.03,10.59,4.54,17.11,4.54s12.41-1.51,17.22-4.54c4.81-3.02,8.46-7.17,10.94-12.45,2.48-5.27,3.72-11.32,3.72-18.15s-1.24-12.88-3.72-18.15c-2.48-5.27-6.13-9.43-10.94-12.45-4.81-3.03-10.55-4.54-17.22-4.54s-12.22,1.48-17.11,4.42c-4.89,2.95-8.65,7.06-11.29,12.34-2.64,5.28-3.95,11.4-3.95,18.39Z"/>
      <path class="cls-1" d="M679.16,312.81h-28.16v-173.16h28.16v173.16Z"/>
      <path class="cls-1" d="M766.9,197.83h28.4v114.98h-26.3l-2.09-15.36c-3.41,5.43-8.53,9.85-15.36,13.27-6.83,3.41-14.12,5.12-21.88,5.12-13.19,0-23.51-4.19-30.96-12.57-7.45-8.38-11.17-19.55-11.17-33.52v-71.92h28.4v61.91c0,10.86,2.09,18.7,6.28,23.51,4.19,4.81,10.24,7.22,18.15,7.22,9,0,15.67-2.68,20.02-8.03,4.34-5.35,6.52-13.46,6.52-24.32v-60.28Z"/>
      <path class="cls-1" d="M798.32,252.76c0-11.17,2.29-21.14,6.87-29.91,4.58-8.76,10.97-15.71,19.2-20.83,8.22-5.12,17.76-7.68,28.63-7.68,9.77,0,18.15,2.13,25.13,6.4,6.99,4.27,11.87,10.21,14.66,17.81l-3.03,2.56,2.33-23.27h26.3v109.16c0,12.72-2.44,23.78-7.33,33.17-4.89,9.39-11.79,16.6-20.71,21.65-8.92,5.04-19.67,7.56-32.24,7.56-16.45,0-29.95-4.42-40.5-13.27-10.55-8.85-16.76-20.95-18.62-36.31h28.39c.93,7.45,4.08,13.27,9.43,17.46,5.35,4.19,12.45,6.28,21.29,6.28,9.78,0,17.57-2.83,23.39-8.49,5.82-5.67,8.73-13.31,8.73-22.93v-28.63l3.26,3.03c-2.79,7.29-7.91,13.11-15.36,17.46-7.45,4.34-16.06,6.52-25.84,6.52-10.86,0-20.33-2.48-28.39-7.45-8.07-4.96-14.35-11.79-18.85-20.48-4.5-8.69-6.75-18.62-6.75-29.79ZM826.95,252.06c0,6.52,1.28,12.3,3.84,17.34,2.56,5.04,6.17,9.04,10.82,11.99,4.66,2.95,10.08,4.42,16.29,4.42,6.52,0,12.14-1.43,16.87-4.31,4.73-2.87,8.38-6.83,10.94-11.87,2.56-5.04,3.84-10.9,3.84-17.57s-1.24-12.45-3.72-17.34c-2.49-4.89-6.09-8.73-10.82-11.52-4.74-2.79-10.44-4.19-17.11-4.19s-11.87,1.44-16.52,4.31c-4.66,2.87-8.23,6.79-10.71,11.75-2.49,4.97-3.72,10.63-3.72,16.99Z"/>
      <path class="cls-1" d="M951.89,309.8c-8.71,0-16.22-3.04-22.55-9.1-6.33-6.06-9.49-13.45-9.49-22.16s3.16-16.15,9.49-22.36c6.33-6.19,13.85-9.3,22.55-9.3s16.22,3.1,22.55,9.3c6.33,6.2,9.5,13.65,9.5,22.36s-3.16,16.09-9.5,22.16c-6.33,6.06-13.85,9.1-22.55,9.1Z"/>
    </g>
  </g>
</svg>